# xmcd CD database file
#
# Track frame offsets:
#	150
#	16692
#	33662
#	49687
#	66522
#	86847
#	106467
#	122717
#	141192
#	162150
#	186165
#	203772
#
# Disc length: 2904 seconds
#
# Revision: 1
# Processed by: cddbd v1.5.2PL0 Copyright (c) Steve Scherf et al.
# Submitted via: CDex 1.79
#
DISCID=a70b560c
DTITLE=Dennis Jones - Falling Up
DYEAR=2003
DGENRE=Blues
TTITLE0=Falling Up
TTITLE1=Yesterday Blues
TTITLE2=Chevrolet
TTITLE3=Big Black Cat
TTITLE4=You Dont Know A Thing About Love
TTITLE5=I Have You
TTITLE6=Deep Blues
TTITLE7=Stray Bullet
TTITLE8=The'N Word
TTITLE9=Fresh Out Of Love
TTITLE10=Pray Your Life Away
TTITLE11=Crazy Over You
EXTD=YEAR: 2003
EXTT0=
EXTT1=
EXTT2=
EXTT3=
EXTT4=
EXTT5=
EXTT6=
EXTT7=
EXTT8=
EXTT9=
EXTT10=
EXTT11=
PLAYORDER=
